<svg version="1.1" id="Layer_1" xmlns="http://www.w3.org/2000/svg" xmlns:xlink="http://www.w3.org/1999/xlink" x="0px" y="0px" viewBox="0 0 94.5 24" style="enable-background:new 0 0 94.5 24;" xml:space="preserve"> <style type="text/css"> .st0{fill:#FF6713;} .st1{fill:#C71777;} </style> <g> <path class="st0" d="M36.3,8.7c-0.7-0.7-1.7-1-2.9-1c-1.3,0-2.3,0.4-3.1,1.1c-0.7,0.8-1.1,1.8-1.1,3.2c0,1.4,0.4,2.4,1.2,3.2 c0.8,0.7,1.8,1.1,3.2,1.1c0.7,0,1.2,0,1.7-0.1c0.5-0.1,1-0.3,1-0.3c0.2-0.1,0.4-0.4,0.4-0.7v-1.1c0-0.3-0.2-0.4-0.4-0.3 c0,0-0.5,0.2-0.9,0.3c-0.4,0.1-0.9,0.1-1.4,0.1c-0.6,0-1-0.1-1.3-0.4c-0.3-0.3-0.4-0.6-0.4-0.6c-0.1-0.3,0.1-0.5,0.4-0.5h4.2 c0.3,0,0.5-0.2,0.5-0.5V12c0-0.3,0-0.7-0.1-1C37.2,11.1,37,9.4,36.3,8.7z M34.2,11h-1.5c-0.3,0-0.4-0.2-0.4-0.5 c0,0,0.1-0.3,0.3-0.5c0.2-0.2,0.5-0.3,0.9-0.3c0.4,0,0.7,0.1,0.9,0.4c0.2,0.2,0.3,0.5,0.3,0.5C34.7,10.8,34.5,11,34.2,11z"/> <path class="st0" d="M49.3,7.9h-1.9c-0.3,0-0.5,0.2-0.5,0.5v7.4c0,0.3,0.2,0.5,0.5,0.5h1.9c0.3,0,0.5-0.2,0.5-0.5V8.4 C49.8,8.1,49.6,7.9,49.3,7.9z"/> <path class="st0" d="M56.5,11.7c-0.3-0.2-0.7-0.5-1.3-0.7c-0.8-0.3-1.3-0.5-1.4-0.6c-0.2-0.1-0.2-0.2-0.2-0.4 c0-0.2,0.2-0.3,0.7-0.3c0.3,0,0.6,0.1,1,0.2c0.4,0.1,0.8,0.3,0.8,0.3c0.2,0.1,0.5,0,0.6-0.3l0.4-1c0.1-0.2,0-0.5-0.3-0.6 c0,0-0.6-0.2-1.1-0.3c-0.5-0.1-1-0.2-1.6-0.2c-1.1,0-1.9,0.2-2.5,0.6c-0.6,0.4-0.9,1-0.9,1.8c0,0.6,0.2,1.1,0.5,1.5 c0.3,0.4,0.8,0.8,1.6,1.1c0.8,0.3,1.3,0.6,1.5,0.7s0.3,0.2,0.3,0.4c0,0.3-0.3,0.4-0.9,0.4c-0.4,0-0.9-0.1-1.4-0.2 c-0.5-0.1-1-0.3-1-0.3c-0.2-0.1-0.4,0-0.4,0.3v1.3c0,0.3,0.2,0.5,0.5,0.6c0,0,0.5,0.2,0.9,0.2c0.5,0.1,1,0.1,1.6,0.1 c1.1,0,2-0.2,2.6-0.7c0.6-0.5,0.9-1.1,0.9-2c0-0.4-0.1-0.8-0.2-1.1C57,12.2,56.8,11.9,56.5,11.7z"/> <path class="st0" d="M63.4,7.7c-0.9,0-1.9,0.9-1.9,0.9c-0.2,0.2-0.4,0.3-0.4,0.3c0,0-0.1-0.2-0.2-0.4l-0.1-0.2 c-0.1-0.2-0.4-0.4-0.7-0.4h-1.4c-0.3,0-0.5,0.2-0.5,0.5v9.8c0,0.3,0.2,0.5,0.5,0.5h1.9c0.3,0,0.5-0.2,0.5-0.5V17 c0-0.3,0-0.8-0.1-1.1c0-0.3,0-0.5,0-0.5c0,0,0.2,0.1,0.4,0.3c0,0,0.3,0.3,0.6,0.4c0.3,0.1,0.7,0.2,1.1,0.2c0.9,0,1.7-0.4,2.2-1.2 c0.5-0.8,0.8-1.8,0.8-3.2c0-1.3-0.3-2.4-0.8-3.2C65.1,8.1,64.4,7.7,63.4,7.7z M63.2,13.6c-0.2,0.3-0.4,0.5-0.8,0.5 c-0.4,0-0.7-0.2-0.9-0.5c-0.2-0.3-0.3-1.1-0.3-1.1c0-0.3,0-0.5,0-0.6c0-0.1,0-0.3,0-0.6c0,0,0.1-0.6,0.2-0.9 c0.2-0.3,0.5-0.5,0.9-0.5c0.4,0,0.7,0.2,0.8,0.5c0.2,0.3,0.3,0.8,0.3,1.5C63.5,12.7,63.4,13.3,63.2,13.6z"/> <path class="st0" d="M73.1,7.8c0,0-0.3,0-0.5-0.1c0,0,0,0-0.3,0c-0.4,0-0.9,0.1-1.3,0.4c-0.4,0.3-0.7,0.7-0.7,0.7 C70.1,9,70,9.2,69.9,9.2c0,0-0.1-0.2-0.2-0.5l-0.1-0.4c-0.1-0.3-0.4-0.5-0.6-0.5h-1.2c-0.3,0-0.5,0.2-0.5,0.5v7.4 c0,0.3,0.2,0.5,0.5,0.5h1.9c0.3,0,0.5-0.2,0.5-0.5v-3.1c0-0.3,0-0.7,0.1-1c0,0,0.1-0.5,0.4-0.8c0.3-0.3,0.7-0.4,1.4-0.4 c0.4,0,0.5,0,0.5,0c0.3,0,0.5-0.1,0.5-0.4l0.2-1.8C73.1,8,73.1,7.8,73.1,7.8z"/> <path class="st0" d="M76.4,7.9h-1.9c-0.3,0-0.5,0.2-0.5,0.5v7.4c0,0.3,0.2,0.5,0.5,0.5h1.9c0.3,0,0.5-0.2,0.5-0.5V8.4 C76.9,8.1,76.7,7.9,76.4,7.9z"/> <path class="st0" d="M85.6,8.5c-0.5-0.5-1.2-0.8-2.2-0.8c-0.6,0-1.1,0.1-1.5,0.3c-0.4,0.2-0.7,0.5-0.7,0.5 c-0.2,0.2-0.3,0.4-0.4,0.4c0,0-0.2-0.2-0.2-0.5l0-0.1c-0.1-0.2-0.4-0.5-0.6-0.5h-1.2c-0.3,0-0.5,0.2-0.5,0.5v7.4 c0,0.3,0.2,0.5,0.5,0.5h1.9c0.3,0,0.5-0.2,0.5-0.5v-2.7c0-0.3,0-0.7,0-1c0,0,0.1-1.1,0.3-1.5c0.2-0.4,0.6-0.6,1.1-0.6 c0.4,0,0.6,0.1,0.8,0.4s0.2,0.8,0.2,0.8c0,0.3,0,0.7,0,1v3.6c0,0.3,0.2,0.5,0.5,0.5h1.9c0.3,0,0.5-0.2,0.5-0.5v-4.5 c0-0.3,0-0.7-0.1-1C86.3,10.3,86.1,9.1,85.6,8.5z"/> <path class="st0" d="M45.6,9.6c0.2-0.2,0.2-0.5,0-0.7l-1.4-1.4c-0.2-0.2-0.5-0.2-0.7,0l-2.1,2.1c-0.2,0.2-0.3,0.3-0.3,0.3 c0,0,0-0.2,0-0.5V5.9c0-0.3-0.2-0.5-0.5-0.5h-2c-0.3,0-0.5,0.2-0.5,0.5v4.6c0,0.3,0,0.7,0,1v0.8c0,0.3,0,0.7,0,1v2.5 c0,0.3,0.1,0.5,0.3,0.5c0.2,0,0.5,0,0.8,0h1.3c0.3,0,0.5-0.2,0.5-0.5v-1.1c0-0.3,0-0.5,0-0.5c0,0,0.2,0.2,0.3,0.3l2.1,2.1 c0.2,0.2,0.5,0.2,0.7,0l1.4-1.4c0.2-0.2,0.2-0.5,0-0.7l-2.1-2.1c-0.2-0.2-0.2-0.5,0-0.7L45.6,9.6z"/> <path class="st0" d="M92.1,14c0,0-0.5,0.2-0.9,0.2c-0.5,0-0.6-0.4-0.6-0.4c-0.1-0.3-0.1-0.7-0.1-0.9v-2.3c0-0.3,0.2-0.5,0.5-0.5 h1.1c0.3,0,0.5-0.2,0.5-0.5V8.4c0-0.3-0.2-0.5-0.5-0.5h-1.1c-0.3,0-0.5-0.2-0.5-0.5V6c0-0.3-0.2-0.5-0.5-0.5h-1.9 c-0.3,0-0.5,0.2-0.5,0.5l0,3.5c0,0.3,0,0.7,0,1V13c0,0.3,0,0.7,0.1,1c0,0,0.2,1.2,0.6,1.7c0.4,0.5,1.1,0.7,2.1,0.7 c0.5,0,0.9,0,1.2-0.1c0.4-0.1,0.7-0.2,0.7-0.2c0.2-0.1,0.4-0.4,0.4-0.6v-1.1C92.5,14,92.3,13.9,92.1,14z"/> <path class="st1" d="M14,0C7.3,0,2,5.4,2,12s5.4,12,12,12s12-5.4,12-12S20.6,0,14,0z M14,19.9C9.6,19.9,6,16.4,6,12S9.6,4.1,14,4.1 s7.9,3.6,7.9,7.9S18.3,19.9,14,19.9z"/> <path class="st0" d="M17,7.6c-0.2-0.2-0.5-0.2-0.7,0l-2,2c-0.2,0.2-0.5,0.2-0.7,0l-2-2c-0.2-0.2-0.5-0.2-0.7,0L9.6,9 c-0.2,0.2-0.2,0.5,0,0.7l2,2c0.2,0.2,0.2,0.5,0,0.7l-2,2c-0.2,0.2-0.2,0.5,0,0.7l1.3,1.3c0.2,0.2,0.5,0.2,0.7,0l2-2 c0.2-0.2,0.5-0.2,0.7,0l2,2c0.2,0.2,0.5,0.2,0.7,0l1.3-1.3c0.2-0.2,0.2-0.5,0-0.7l-2-2c-0.2-0.2-0.2-0.5,0-0.7l2-2 c0.2-0.2,0.2-0.5,0-0.7L17,7.6z"/> </g> </svg>