<svg version="1.1" id="Layer_1" xmlns="http://www.w3.org/2000/svg" xmlns:xlink="http://www.w3.org/1999/xlink" x="0px" y="0px"
	 viewBox="0 0 94.5 24" style="enable-background:new 0 0 94.5 24;" xml:space="preserve">
<style type="text/css">.st0{fill:#C81978;}.st1{fill:#E55C24;}
</style>
<g>
	<path class="st0" d="M30.1,7.5c-1.2,0-2.2,0.4-2.9,1.1c-0.7,0.7-1,1.7-1,3.1c0,1.3,0.4,2.3,1.1,3c0.7,0.7,1.7,1,3.1,1
		c0.6,0,1.2,0,1.6-0.1c0.5-0.1,0.9-0.2,1.3-0.5v-2c-0.5,0.2-0.9,0.4-1.3,0.5c-0.4,0.1-0.8,0.1-1.3,0.1c-0.5,0-0.9-0.1-1.2-0.4
		c-0.3-0.3-0.5-0.6-0.5-1h4.9v-1.2c0-1.2-0.3-2.1-1-2.7C32.2,7.8,31.3,7.5,30.1,7.5z M29,10.6c0-0.4,0.2-0.7,0.4-0.9
		c0.2-0.2,0.5-0.3,0.8-0.3c0.3,0,0.6,0.1,0.8,0.3c0.2,0.2,0.3,0.5,0.3,0.9H29z"/>
	<path class="st0" d="M39.5,8.6L39.5,8.6c-0.5-0.7-1.3-1.1-2.2-1.1c-0.9,0-1.6,0.4-2.1,1.1c-0.5,0.7-0.8,1.7-0.8,3
		c0,1.3,0.3,2.3,0.8,3s1.2,1.1,2.1,1.1c0.9,0,1.6-0.4,2.1-1.1h0.1c-0.1,0.6-0.1,1-0.1,1.2v3.3h2.7V7.7h-2.3L39.5,8.6z M39.6,11.9
		c0,0.6-0.1,1-0.3,1.3c-0.2,0.3-0.5,0.4-0.9,0.4c-0.4,0-0.7-0.1-0.9-0.4c-0.2-0.3-0.3-0.8-0.3-1.5c0-1.3,0.4-2,1.1-2
		c0.4,0,0.7,0.1,0.9,0.4c0.2,0.3,0.3,0.8,0.3,1.5V11.9z"/>
	<path class="st0" d="M65.1,7.7h-2.3v11.3h2.7v-3.3c0-0.2,0-0.5-0.1-1.2h0.1c0.4,0.8,1.1,1.1,2.1,1.1c0.9,0,1.6-0.4,2.1-1.1
		s0.8-1.7,0.8-3c0-1.3-0.3-2.3-0.8-3c-0.5-0.7-1.2-1.1-2.1-1.1c-0.9,0-1.7,0.4-2.1,1.1h-0.1L65.1,7.7z M65.3,11.6
		c0-0.7,0.1-1.2,0.3-1.5c0.2-0.3,0.5-0.4,0.9-0.4c0.8,0,1.1,0.7,1.1,2c0,0.7-0.1,1.2-0.3,1.5c-0.2,0.3-0.5,0.4-0.9,0.4
		c-0.4,0-0.7-0.1-0.9-0.4c-0.2-0.3-0.3-0.7-0.3-1.3V11.6z"/>
	<path class="st0" d="M48.2,11.1c0,0.9-0.1,1.5-0.3,1.9c-0.2,0.4-0.5,0.6-1,0.6c-0.3,0-0.6-0.1-0.7-0.4C46,12.9,46,12.5,46,12V7.7
		h-2.7v5.1c0,0.9,0.2,1.6,0.7,2.1c0.5,0.5,1.2,0.8,2,0.8c0.5,0,1-0.1,1.4-0.3c0.4-0.2,0.7-0.5,0.9-0.8h0.2l0.3,1h2.1V7.7h-2.7V11.1z
		"/>
	<rect x="52.1" y="7.7" class="st0" width="2.7" height="7.9"/>
	<path class="st0" d="M61.3,11.3c-0.3-0.2-0.7-0.4-1.2-0.7c-0.7-0.3-1.2-0.5-1.3-0.6c-0.2-0.1-0.2-0.2-0.2-0.3
		c0-0.2,0.2-0.3,0.7-0.3c0.3,0,0.6,0.1,1,0.2c0.4,0.1,0.8,0.3,1.1,0.4L62,8.2c-0.5-0.2-1-0.4-1.4-0.5c-0.5-0.1-0.9-0.2-1.5-0.2
		c-1,0-1.8,0.2-2.4,0.6c-0.6,0.4-0.8,1-0.8,1.7c0,0.6,0.1,1.1,0.4,1.4c0.3,0.4,0.8,0.7,1.5,1c0.8,0.3,1.3,0.5,1.4,0.6
		c0.2,0.1,0.2,0.2,0.2,0.4c0,0.3-0.3,0.4-0.9,0.4c-0.4,0-0.8-0.1-1.3-0.2c-0.5-0.1-1-0.3-1.4-0.5v2.2c0.4,0.2,0.9,0.3,1.3,0.3
		c0.4,0.1,0.9,0.1,1.5,0.1c1.1,0,1.9-0.2,2.5-0.6c0.6-0.4,0.9-1.1,0.9-1.9c0-0.4-0.1-0.8-0.2-1.1C61.8,11.7,61.6,11.5,61.3,11.3z"/>
	<path class="st0" d="M75.9,7.5c-0.4,0-0.8,0.1-1.2,0.4c-0.4,0.3-0.7,0.6-0.9,1h-0.1l-0.4-1.3h-2v7.9h2.7v-3.9
		c0-0.5,0.1-0.9,0.4-1.2c0.3-0.3,0.7-0.4,1.3-0.4c0.4,0,0.7,0,0.9,0.1l0.2-2.6l-0.2,0C76.4,7.5,76.1,7.5,75.9,7.5z"/>
	<rect x="77.4" y="7.7" class="st0" width="2.7" height="7.9"/>
	<path class="st0" d="M83.8,7.5c0.5,0,1,0.1,1.4,0.3c0.4,0.2,0.7,0.5,1,0.8h0.2l0.3-1h2.1v7.9H86v-3.4c0-0.9-0.1-1.5-0.3-1.9
		c-0.2-0.4-0.5-0.5-1-0.5c-0.3,0-0.6,0.1-0.7,0.4c-0.2,0.3-0.2,0.7-0.2,1.2v4.3H81v-5.1c0-0.9,0.2-1.6,0.7-2.1
		C82.2,7.8,82.9,7.5,83.8,7.5z"/>
	<path class="st0" d="M93.2,13.5c-0.5,0-0.7-0.3-0.7-0.8V9.7h1.9v-2h-1.9V6.1h-2.7l0,3.6v3.2c0,0.9,0.2,1.6,0.6,2.1
		c0.4,0.4,1.1,0.7,2,0.7c0.4,0,0.8,0,1.2-0.1c0.3-0.1,0.7-0.2,1-0.3v-2C94,13.4,93.5,13.5,93.2,13.5z"/>
	<path class="st1" d="M12,0C5.4,0,0,5.4,0,12s5.4,12,12,12s12-5.4,12-12S18.6,0,12,0z M12,19.9c-4.4,0-7.9-3.6-7.9-7.9
		S7.6,4.1,12,4.1s7.9,3.6,7.9,7.9S16.4,19.9,12,19.9z"/>
	<polygon class="st0" points="14.7,7.2 12,9.9 9.3,7.2 7.3,9.2 10,12 7.3,14.7 9.3,16.7 12,14 14.7,16.7 16.7,14.7 14,12 16.7,9.2 	
		"/>
</g>
</svg>
